<svg xmlns="http://www.w3.org/2000/svg" xmlns:xlink="http://www.w3.org/1999/xlink" width="500" zoomAndPan="magnify" viewBox="0 0 375 74.999997" height="100" preserveAspectRatio="xMidYMid meet" version="1.0"><defs><g/><clipPath id="edba67028d"><path d="M 118 20.730469 L 163 20.730469 L 163 40 L 118 40 Z M 118 20.730469 " clip-rule="nonzero"/></clipPath><clipPath id="cf7890b90e"><path d="M 114.265625 39 L 159 39 L 159 58.230469 L 114.265625 58.230469 Z M 114.265625 39 " clip-rule="nonzero"/></clipPath></defs><g clip-path="url(#edba67028d)"><path fill="#00adef" d="M 118.777344 39.625 L 126.074219 39.625 L 131.820312 32.355469 L 124.523438 32.355469 Z M 155.566406 20.730469 L 140.296875 39.625 L 147.59375 39.625 L 162.863281 20.730469 Z M 140.945312 25.476562 L 129.535156 39.625 L 136.832031 39.625 L 148.242188 25.476562 L 140.945312 25.476562 " fill-opacity="1" fill-rule="nonzero"/></g><g clip-path="url(#cf7890b90e)"><path fill="#ffde59" d="M 158.351562 39.625 L 151.054688 39.625 L 145.308594 46.890625 L 152.605469 46.890625 Z M 121.5625 58.515625 L 136.832031 39.625 L 129.535156 39.625 L 114.265625 58.515625 Z M 136.183594 53.769531 L 147.59375 39.625 L 140.296875 39.625 L 128.886719 53.769531 L 136.183594 53.769531 " fill-opacity="1" fill-rule="nonzero"/></g><g fill="#00adef" fill-opacity="1"><g transform="translate(164.779931, 36.18665)"><g><path d="M 0.5 -15.484375 L 11.703125 -15.484375 L 11.703125 -12.46875 L 7.75 -12.46875 L 7.75 0 L 4.453125 0 L 4.453125 -12.46875 L 0.5 -12.46875 Z M 0.5 -15.484375 "/></g></g></g><g fill="#00adef" fill-opacity="1"><g transform="translate(176.557098, 36.18665)"><g><path d="M 6.328125 -11.140625 C 7.148438 -11.140625 7.894531 -10.972656 8.5625 -10.640625 C 9.226562 -10.316406 9.800781 -9.890625 10.28125 -9.359375 C 10.769531 -8.828125 11.144531 -8.210938 11.40625 -7.515625 C 11.664062 -6.828125 11.796875 -6.117188 11.796875 -5.390625 C 11.796875 -4.953125 11.738281 -4.488281 11.625 -4 L 3.890625 -4 C 4.179688 -3.5 4.59375 -3.078125 5.125 -2.734375 C 5.664062 -2.398438 6.25 -2.234375 6.875 -2.234375 C 7.5 -2.234375 8.046875 -2.28125 8.515625 -2.375 C 8.992188 -2.476562 9.445312 -2.613281 9.875 -2.78125 L 10.875 -0.921875 C 10.332031 -0.535156 9.71875 -0.238281 9.03125 -0.03125 C 8.34375 0.164062 7.601562 0.265625 6.8125 0.265625 C 5.957031 0.265625 5.15625 0.113281 4.40625 -0.1875 C 3.664062 -0.488281 3.019531 -0.890625 2.46875 -1.390625 C 1.914062 -1.898438 1.476562 -2.503906 1.15625 -3.203125 C 0.832031 -3.910156 0.671875 -4.65625 0.671875 -5.4375 C 0.671875 -6.207031 0.816406 -6.9375 1.109375 -7.625 C 1.398438 -8.320312 1.804688 -8.925781 2.328125 -9.4375 C 2.847656 -9.957031 3.445312 -10.367188 4.125 -10.671875 C 4.8125 -10.984375 5.546875 -11.140625 6.328125 -11.140625 Z M 8.796875 -6.328125 C 8.628906 -6.960938 8.316406 -7.472656 7.859375 -7.859375 C 7.410156 -8.253906 6.898438 -8.453125 6.328125 -8.453125 C 5.742188 -8.453125 5.21875 -8.253906 4.75 -7.859375 C 4.28125 -7.472656 3.957031 -6.960938 3.78125 -6.328125 Z M 8.796875 -6.328125 "/></g></g></g><g fill="#00adef" fill-opacity="1"><g transform="translate(189.120868, 36.18665)"><g><path d="M 6.3125 -8.453125 C 5.945312 -8.453125 5.601562 -8.367188 5.28125 -8.203125 C 4.96875 -8.035156 4.6875 -7.804688 4.4375 -7.515625 C 4.195312 -7.234375 4.007812 -6.90625 3.875 -6.53125 C 3.738281 -6.15625 3.671875 -5.75 3.671875 -5.3125 C 3.671875 -4.875 3.738281 -4.472656 3.875 -4.109375 C 4.007812 -3.753906 4.195312 -3.445312 4.4375 -3.1875 C 4.6875 -2.9375 4.96875 -2.738281 5.28125 -2.59375 C 5.601562 -2.445312 5.945312 -2.375 6.3125 -2.375 C 6.757812 -2.375 7.195312 -2.476562 7.625 -2.6875 C 8.0625 -2.90625 8.429688 -3.203125 8.734375 -3.578125 L 10.59375 -1.75 C 10.082031 -1.132812 9.457031 -0.644531 8.71875 -0.28125 C 7.976562 0.0820312 7.175781 0.265625 6.3125 0.265625 C 5.53125 0.265625 4.796875 0.113281 4.109375 -0.1875 C 3.421875 -0.488281 2.820312 -0.894531 2.3125 -1.40625 C 1.800781 -1.925781 1.394531 -2.53125 1.09375 -3.21875 C 0.800781 -3.914062 0.65625 -4.65625 0.65625 -5.4375 C 0.65625 -6.226562 0.800781 -6.96875 1.09375 -7.65625 C 1.394531 -8.34375 1.800781 -8.945312 2.3125 -9.46875 C 2.820312 -9.988281 3.421875 -10.394531 4.109375 -10.6875 C 4.796875 -10.988281 5.53125 -11.140625 6.3125 -11.140625 C 7.195312 -11.140625 8.019531 -10.945312 8.78125 -10.5625 C 9.539062 -10.1875 10.179688 -9.671875 10.703125 -9.015625 L 8.609375 -7.40625 C 8.179688 -7.800781 7.796875 -8.070312 7.453125 -8.21875 C 7.117188 -8.375 6.738281 -8.453125 6.3125 -8.453125 Z M 6.3125 -8.453125 "/></g></g></g><g fill="#00adef" fill-opacity="1"><g transform="translate(199.936634, 36.18665)"><g><path d="M 6.625 -10.828125 C 7.03125 -10.828125 7.476562 -10.769531 7.96875 -10.65625 C 8.46875 -10.539062 8.9375 -10.320312 9.375 -10 C 9.8125 -9.6875 10.175781 -9.242188 10.46875 -8.671875 C 10.769531 -8.097656 10.921875 -7.363281 10.921875 -6.46875 L 10.921875 0 L 7.890625 0 L 7.890625 -6.359375 C 7.890625 -6.691406 7.832031 -6.972656 7.71875 -7.203125 C 7.613281 -7.441406 7.46875 -7.628906 7.28125 -7.765625 C 7.101562 -7.898438 6.894531 -8 6.65625 -8.0625 C 6.425781 -8.132812 6.195312 -8.171875 5.96875 -8.171875 C 5.769531 -8.171875 5.554688 -8.132812 5.328125 -8.0625 C 5.109375 -8 4.898438 -7.894531 4.703125 -7.75 C 4.503906 -7.601562 4.335938 -7.414062 4.203125 -7.1875 C 4.078125 -6.957031 4.015625 -6.679688 4.015625 -6.359375 L 4.015625 0 L 1 0 L 1 -10.828125 L 3.578125 -10.828125 L 4.015625 -10 C 4.367188 -10.25 4.765625 -10.445312 5.203125 -10.59375 C 5.640625 -10.75 6.113281 -10.828125 6.625 -10.828125 Z M 6.625 -10.828125 "/></g></g></g><g fill="#00adef" fill-opacity="1"><g transform="translate(211.320502, 36.18665)"><g><path d="M 6.3125 -11.140625 C 7.082031 -11.140625 7.8125 -10.988281 8.5 -10.6875 C 9.1875 -10.394531 9.78125 -9.988281 10.28125 -9.46875 C 10.789062 -8.945312 11.195312 -8.34375 11.5 -7.65625 C 11.800781 -6.96875 11.953125 -6.226562 11.953125 -5.4375 C 11.953125 -4.65625 11.800781 -3.914062 11.5 -3.21875 C 11.195312 -2.53125 10.789062 -1.925781 10.28125 -1.40625 C 9.78125 -0.894531 9.1875 -0.488281 8.5 -0.1875 C 7.8125 0.113281 7.082031 0.265625 6.3125 0.265625 C 5.53125 0.265625 4.796875 0.113281 4.109375 -0.1875 C 3.421875 -0.488281 2.820312 -0.894531 2.3125 -1.40625 C 1.800781 -1.925781 1.394531 -2.53125 1.09375 -3.21875 C 0.800781 -3.914062 0.65625 -4.65625 0.65625 -5.4375 C 0.65625 -6.226562 0.800781 -6.96875 1.09375 -7.65625 C 1.394531 -8.34375 1.800781 -8.945312 2.3125 -9.46875 C 2.820312 -9.988281 3.421875 -10.394531 4.109375 -10.6875 C 4.796875 -10.988281 5.53125 -11.140625 6.3125 -11.140625 Z M 6.3125 -2.375 C 6.675781 -2.375 7.015625 -2.445312 7.328125 -2.59375 C 7.640625 -2.738281 7.914062 -2.9375 8.15625 -3.1875 C 8.394531 -3.445312 8.582031 -3.753906 8.71875 -4.109375 C 8.863281 -4.472656 8.9375 -4.875 8.9375 -5.3125 C 8.9375 -5.75 8.863281 -6.15625 8.71875 -6.53125 C 8.582031 -6.90625 8.394531 -7.234375 8.15625 -7.515625 C 7.914062 -7.804688 7.640625 -8.035156 7.328125 -8.203125 C 7.015625 -8.367188 6.675781 -8.453125 6.3125 -8.453125 C 5.945312 -8.453125 5.601562 -8.367188 5.28125 -8.203125 C 4.96875 -8.035156 4.6875 -7.804688 4.4375 -7.515625 C 4.195312 -7.234375 4.007812 -6.90625 3.875 -6.53125 C 3.738281 -6.15625 3.671875 -5.75 3.671875 -5.3125 C 3.671875 -4.875 3.738281 -4.472656 3.875 -4.109375 C 4.007812 -3.753906 4.195312 -3.445312 4.4375 -3.1875 C 4.6875 -2.9375 4.96875 -2.738281 5.28125 -2.59375 C 5.601562 -2.445312 5.945312 -2.375 6.3125 -2.375 Z M 6.3125 -2.375 "/></g></g></g><g fill="#ffde59" fill-opacity="1"><g transform="translate(160.233892, 54.131285)"><g><path d="M 7.296875 -15.484375 C 8.421875 -15.484375 9.410156 -15.28125 10.265625 -14.875 C 11.128906 -14.46875 11.847656 -13.914062 12.421875 -13.21875 C 12.992188 -12.519531 13.425781 -11.695312 13.71875 -10.75 C 14.019531 -9.800781 14.171875 -8.796875 14.171875 -7.734375 C 14.171875 -6.648438 14.015625 -5.640625 13.703125 -4.703125 C 13.390625 -3.765625 12.957031 -2.945312 12.40625 -2.25 C 11.851562 -1.550781 11.195312 -1 10.4375 -0.59375 C 9.6875 -0.195312 8.863281 0 7.96875 0 L 1.046875 0 L 1.046875 -15.484375 Z M 7.3125 -3 C 7.9375 -3 8.472656 -3.125 8.921875 -3.375 C 9.367188 -3.625 9.738281 -3.96875 10.03125 -4.40625 C 10.320312 -4.84375 10.535156 -5.34375 10.671875 -5.90625 C 10.804688 -6.476562 10.875 -7.078125 10.875 -7.703125 C 10.875 -8.335938 10.804688 -8.941406 10.671875 -9.515625 C 10.546875 -10.085938 10.335938 -10.59375 10.046875 -11.03125 C 9.753906 -11.46875 9.378906 -11.816406 8.921875 -12.078125 C 8.472656 -12.335938 7.9375 -12.46875 7.3125 -12.46875 L 4.375 -12.46875 L 4.375 -3 Z M 7.3125 -3 "/></g></g></g><g fill="#ffde59" fill-opacity="1"><g transform="translate(174.716211, 54.131285)"><g><path d="M 6.328125 -11.140625 C 7.148438 -11.140625 7.894531 -10.972656 8.5625 -10.640625 C 9.226562 -10.316406 9.800781 -9.890625 10.28125 -9.359375 C 10.769531 -8.828125 11.144531 -8.210938 11.40625 -7.515625 C 11.664062 -6.828125 11.796875 -6.117188 11.796875 -5.390625 C 11.796875 -4.953125 11.738281 -4.488281 11.625 -4 L 3.890625 -4 C 4.179688 -3.5 4.59375 -3.078125 5.125 -2.734375 C 5.664062 -2.398438 6.25 -2.234375 6.875 -2.234375 C 7.5 -2.234375 8.046875 -2.28125 8.515625 -2.375 C 8.992188 -2.476562 9.445312 -2.613281 9.875 -2.78125 L 10.875 -0.921875 C 10.332031 -0.535156 9.71875 -0.238281 9.03125 -0.03125 C 8.34375 0.164062 7.601562 0.265625 6.8125 0.265625 C 5.957031 0.265625 5.15625 0.113281 4.40625 -0.1875 C 3.664062 -0.488281 3.019531 -0.890625 2.46875 -1.390625 C 1.914062 -1.898438 1.476562 -2.503906 1.15625 -3.203125 C 0.832031 -3.910156 0.671875 -4.65625 0.671875 -5.4375 C 0.671875 -6.207031 0.816406 -6.9375 1.109375 -7.625 C 1.398438 -8.320312 1.804688 -8.925781 2.328125 -9.4375 C 2.847656 -9.957031 3.445312 -10.367188 4.125 -10.671875 C 4.8125 -10.984375 5.546875 -11.140625 6.328125 -11.140625 Z M 8.796875 -6.328125 C 8.628906 -6.960938 8.316406 -7.472656 7.859375 -7.859375 C 7.410156 -8.253906 6.898438 -8.453125 6.328125 -8.453125 C 5.742188 -8.453125 5.21875 -8.253906 4.75 -7.859375 C 4.28125 -7.472656 3.957031 -6.960938 3.78125 -6.328125 Z M 8.796875 -6.328125 "/></g></g></g><g fill="#ffde59" fill-opacity="1"><g transform="translate(187.276276, 54.131285)"><g><path d="M 7.859375 -5.671875 C 8.660156 -5.109375 9.0625 -4.300781 9.0625 -3.25 C 9.0625 -2.769531 8.945312 -2.316406 8.71875 -1.890625 C 8.5 -1.472656 8.191406 -1.101562 7.796875 -0.78125 C 7.398438 -0.46875 6.941406 -0.21875 6.421875 -0.03125 C 5.898438 0.144531 5.335938 0.234375 4.734375 0.234375 C 4.285156 0.234375 3.847656 0.175781 3.421875 0.0625 C 2.992188 -0.0507812 2.597656 -0.207031 2.234375 -0.40625 C 1.867188 -0.613281 1.550781 -0.859375 1.28125 -1.140625 C 1.007812 -1.429688 0.804688 -1.75 0.671875 -2.09375 C 1.003906 -2.257812 1.375 -2.4375 1.78125 -2.625 C 2.195312 -2.820312 2.554688 -3.003906 2.859375 -3.171875 C 2.992188 -2.953125 3.195312 -2.75 3.46875 -2.5625 C 3.75 -2.382812 4.128906 -2.296875 4.609375 -2.296875 C 5.109375 -2.296875 5.472656 -2.410156 5.703125 -2.640625 C 5.929688 -2.878906 6.046875 -3.097656 6.046875 -3.296875 C 6.046875 -3.441406 5.960938 -3.578125 5.796875 -3.703125 C 5.640625 -3.828125 5.460938 -3.925781 5.265625 -4 C 4.972656 -4.113281 4.734375 -4.171875 4.546875 -4.171875 C 4.359375 -4.179688 4.140625 -4.222656 3.890625 -4.296875 C 3.097656 -4.492188 2.492188 -4.75 2.078125 -5.0625 C 1.671875 -5.375 1.367188 -5.6875 1.171875 -6 C 0.984375 -6.320312 0.878906 -6.628906 0.859375 -6.921875 C 0.835938 -7.210938 0.828125 -7.445312 0.828125 -7.625 C 0.828125 -8.09375 0.925781 -8.535156 1.125 -8.953125 C 1.332031 -9.378906 1.613281 -9.75 1.96875 -10.0625 C 2.332031 -10.375 2.75 -10.625 3.21875 -10.8125 C 3.695312 -11 4.203125 -11.09375 4.734375 -11.09375 C 5.191406 -11.09375 5.625 -11.023438 6.03125 -10.890625 C 6.4375 -10.765625 6.804688 -10.582031 7.140625 -10.34375 C 7.472656 -10.113281 7.757812 -9.835938 8 -9.515625 C 8.238281 -9.203125 8.421875 -8.847656 8.546875 -8.453125 L 6.203125 -7.671875 C 6.117188 -7.929688 5.941406 -8.140625 5.671875 -8.296875 C 5.398438 -8.460938 5.113281 -8.546875 4.8125 -8.546875 C 4.5 -8.546875 4.25 -8.441406 4.0625 -8.234375 C 3.875 -8.023438 3.78125 -7.820312 3.78125 -7.625 C 3.78125 -7.375 3.867188 -7.179688 4.046875 -7.046875 C 4.234375 -6.910156 4.4375 -6.8125 4.65625 -6.75 C 4.8125 -6.71875 4.96875 -6.691406 5.125 -6.671875 C 5.28125 -6.648438 5.425781 -6.625 5.5625 -6.59375 C 6.070312 -6.476562 6.515625 -6.347656 6.890625 -6.203125 C 7.265625 -6.054688 7.585938 -5.878906 7.859375 -5.671875 Z M 7.859375 -5.671875 "/></g></g></g><g fill="#ffde59" fill-opacity="1"><g transform="translate(196.516083, 54.131285)"><g><path d="M 7.25 -11.140625 C 8.019531 -11.140625 8.734375 -10.988281 9.390625 -10.6875 C 10.046875 -10.394531 10.609375 -9.988281 11.078125 -9.46875 C 11.554688 -8.945312 11.929688 -8.34375 12.203125 -7.65625 C 12.472656 -6.96875 12.609375 -6.226562 12.609375 -5.4375 C 12.609375 -4.65625 12.472656 -3.914062 12.203125 -3.21875 C 11.929688 -2.53125 11.554688 -1.925781 11.078125 -1.40625 C 10.609375 -0.894531 10.046875 -0.488281 9.390625 -0.1875 C 8.734375 0.113281 8.019531 0.265625 7.25 0.265625 C 6.625 0.265625 6.007812 0.148438 5.40625 -0.078125 C 4.8125 -0.304688 4.347656 -0.59375 4.015625 -0.9375 L 4.015625 4.328125 L 1 4.328125 L 1 -10.828125 L 3.578125 -10.828125 L 4.015625 -10.09375 C 4.441406 -10.46875 4.914062 -10.734375 5.4375 -10.890625 C 5.957031 -11.054688 6.5625 -11.140625 7.25 -11.140625 Z M 6.859375 -2.421875 C 7.253906 -2.421875 7.617188 -2.5 7.953125 -2.65625 C 8.296875 -2.820312 8.59375 -3.039062 8.84375 -3.3125 C 9.101562 -3.582031 9.3125 -3.898438 9.46875 -4.265625 C 9.625 -4.628906 9.703125 -5.019531 9.703125 -5.4375 C 9.703125 -5.84375 9.625 -6.234375 9.46875 -6.609375 C 9.3125 -6.984375 9.101562 -7.300781 8.84375 -7.5625 C 8.59375 -7.832031 8.296875 -8.046875 7.953125 -8.203125 C 7.617188 -8.367188 7.253906 -8.453125 6.859375 -8.453125 C 6.460938 -8.453125 6.09375 -8.394531 5.75 -8.28125 C 5.414062 -8.175781 5.117188 -8.003906 4.859375 -7.765625 C 4.609375 -7.523438 4.410156 -7.210938 4.265625 -6.828125 C 4.117188 -6.441406 4.046875 -5.976562 4.046875 -5.4375 C 4.046875 -4.925781 4.117188 -4.484375 4.265625 -4.109375 C 4.410156 -3.742188 4.609375 -3.429688 4.859375 -3.171875 C 5.117188 -2.921875 5.414062 -2.734375 5.75 -2.609375 C 6.09375 -2.484375 6.460938 -2.421875 6.859375 -2.421875 Z M 6.859375 -2.421875 "/></g></g></g><g fill="#ffde59" fill-opacity="1"><g transform="translate(208.988774, 54.131285)"><g><path d="M 6.328125 -11.140625 C 7.148438 -11.140625 7.894531 -10.972656 8.5625 -10.640625 C 9.226562 -10.316406 9.800781 -9.890625 10.28125 -9.359375 C 10.769531 -8.828125 11.144531 -8.210938 11.40625 -7.515625 C 11.664062 -6.828125 11.796875 -6.117188 11.796875 -5.390625 C 11.796875 -4.953125 11.738281 -4.488281 11.625 -4 L 3.890625 -4 C 4.179688 -3.5 4.59375 -3.078125 5.125 -2.734375 C 5.664062 -2.398438 6.25 -2.234375 6.875 -2.234375 C 7.5 -2.234375 8.046875 -2.28125 8.515625 -2.375 C 8.992188 -2.476562 9.445312 -2.613281 9.875 -2.78125 L 10.875 -0.921875 C 10.332031 -0.535156 9.71875 -0.238281 9.03125 -0.03125 C 8.34375 0.164062 7.601562 0.265625 6.8125 0.265625 C 5.957031 0.265625 5.15625 0.113281 4.40625 -0.1875 C 3.664062 -0.488281 3.019531 -0.890625 2.46875 -1.390625 C 1.914062 -1.898438 1.476562 -2.503906 1.15625 -3.203125 C 0.832031 -3.910156 0.671875 -4.65625 0.671875 -5.4375 C 0.671875 -6.207031 0.816406 -6.9375 1.109375 -7.625 C 1.398438 -8.320312 1.804688 -8.925781 2.328125 -9.4375 C 2.847656 -9.957031 3.445312 -10.367188 4.125 -10.671875 C 4.8125 -10.984375 5.546875 -11.140625 6.328125 -11.140625 Z M 8.796875 -6.328125 C 8.628906 -6.960938 8.316406 -7.472656 7.859375 -7.859375 C 7.410156 -8.253906 6.898438 -8.453125 6.328125 -8.453125 C 5.742188 -8.453125 5.21875 -8.253906 4.75 -7.859375 C 4.28125 -7.472656 3.957031 -6.960938 3.78125 -6.328125 Z M 8.796875 -6.328125 "/></g></g></g><g fill="#ffde59" fill-opacity="1"><g transform="translate(221.548839, 54.131285)"><g><path d="M 9.484375 -10.828125 L 12.0625 -10.828125 L 12.0625 -3.671875 C 12.0625 -2.835938 12.046875 -2.097656 12.015625 -1.453125 C 11.992188 -0.804688 11.941406 -0.222656 11.859375 0.296875 C 11.773438 0.816406 11.632812 1.28125 11.4375 1.6875 C 11.238281 2.09375 10.960938 2.46875 10.609375 2.8125 C 9.972656 3.4375 9.257812 3.863281 8.46875 4.09375 C 7.675781 4.332031 6.84375 4.453125 5.96875 4.453125 C 5.21875 4.453125 4.515625 4.363281 3.859375 4.1875 C 3.210938 4.019531 2.625 3.78125 2.09375 3.46875 L 2.09375 0.65625 C 2.226562 0.863281 2.414062 1.046875 2.65625 1.203125 C 2.894531 1.359375 3.171875 1.492188 3.484375 1.609375 C 3.796875 1.734375 4.128906 1.828125 4.484375 1.890625 C 4.847656 1.953125 5.207031 1.984375 5.5625 1.984375 C 6.050781 1.984375 6.503906 1.921875 6.921875 1.796875 C 7.347656 1.671875 7.71875 1.46875 8.03125 1.1875 C 8.34375 0.914062 8.585938 0.570312 8.765625 0.15625 C 8.953125 -0.25 9.046875 -0.753906 9.046875 -1.359375 L 9.046875 -1.578125 C 8.617188 -1.191406 8.128906 -0.882812 7.578125 -0.65625 C 7.023438 -0.4375 6.421875 -0.328125 5.765625 -0.328125 C 5.035156 -0.328125 4.359375 -0.46875 3.734375 -0.75 C 3.117188 -1.03125 2.585938 -1.414062 2.140625 -1.90625 C 1.691406 -2.394531 1.335938 -2.96875 1.078125 -3.625 C 0.828125 -4.289062 0.703125 -5 0.703125 -5.75 C 0.703125 -6.488281 0.828125 -7.1875 1.078125 -7.84375 C 1.335938 -8.5 1.691406 -9.066406 2.140625 -9.546875 C 2.585938 -10.035156 3.117188 -10.421875 3.734375 -10.703125 C 4.359375 -10.992188 5.035156 -11.140625 5.765625 -11.140625 C 6.453125 -11.140625 7.070312 -11.046875 7.625 -10.859375 C 8.175781 -10.679688 8.648438 -10.394531 9.046875 -10 Z M 6.375 -3.015625 C 6.84375 -3.015625 7.242188 -3.097656 7.578125 -3.265625 C 7.910156 -3.429688 8.1875 -3.644531 8.40625 -3.90625 C 8.625 -4.164062 8.785156 -4.457031 8.890625 -4.78125 C 8.992188 -5.101562 9.046875 -5.414062 9.046875 -5.71875 C 9.046875 -6.050781 8.988281 -6.378906 8.875 -6.703125 C 8.769531 -7.035156 8.609375 -7.328125 8.390625 -7.578125 C 8.171875 -7.835938 7.894531 -8.046875 7.5625 -8.203125 C 7.226562 -8.367188 6.832031 -8.453125 6.375 -8.453125 C 6 -8.453125 5.648438 -8.378906 5.328125 -8.234375 C 5.003906 -8.085938 4.722656 -7.890625 4.484375 -7.640625 C 4.242188 -7.398438 4.054688 -7.113281 3.921875 -6.78125 C 3.785156 -6.457031 3.71875 -6.101562 3.71875 -5.71875 C 3.71875 -5.34375 3.785156 -4.988281 3.921875 -4.65625 C 4.054688 -4.332031 4.242188 -4.046875 4.484375 -3.796875 C 4.722656 -3.546875 5.003906 -3.351562 5.328125 -3.21875 C 5.648438 -3.082031 6 -3.015625 6.375 -3.015625 Z M 6.375 -3.015625 "/></g></g></g><g fill="#ffde59" fill-opacity="1"><g transform="translate(234.06522, 54.131285)"><g><path d="M 7.84375 -10.828125 L 10.859375 -10.828125 L 10.859375 0 L 8.28125 0 L 7.84375 -0.828125 C 7.488281 -0.578125 7.085938 -0.375 6.640625 -0.21875 C 6.203125 -0.0703125 5.726562 0 5.21875 0 C 4.820312 0 4.375 -0.0546875 3.875 -0.171875 C 3.375 -0.285156 2.90625 -0.503906 2.46875 -0.828125 C 2.03125 -1.148438 1.660156 -1.59375 1.359375 -2.15625 C 1.066406 -2.726562 0.921875 -3.46875 0.921875 -4.375 L 0.921875 -10.828125 L 3.953125 -10.828125 L 3.953125 -4.484375 C 3.953125 -4.140625 4.003906 -3.851562 4.109375 -3.625 C 4.222656 -3.394531 4.367188 -3.207031 4.546875 -3.0625 C 4.734375 -2.925781 4.941406 -2.828125 5.171875 -2.765625 C 5.410156 -2.703125 5.648438 -2.671875 5.890625 -2.671875 C 6.085938 -2.671875 6.296875 -2.703125 6.515625 -2.765625 C 6.742188 -2.828125 6.957031 -2.929688 7.15625 -3.078125 C 7.351562 -3.222656 7.515625 -3.410156 7.640625 -3.640625 C 7.773438 -3.878906 7.84375 -4.160156 7.84375 -4.484375 Z M 7.84375 -10.828125 "/></g></g></g><g fill="#ffde59" fill-opacity="1"><g transform="translate(245.489406, 54.131285)"><g><path d="M 6.328125 -11.140625 C 7.148438 -11.140625 7.894531 -10.972656 8.5625 -10.640625 C 9.226562 -10.316406 9.800781 -9.890625 10.28125 -9.359375 C 10.769531 -8.828125 11.144531 -8.210938 11.40625 -7.515625 C 11.664062 -6.828125 11.796875 -6.117188 11.796875 -5.390625 C 11.796875 -4.953125 11.738281 -4.488281 11.625 -4 L 3.890625 -4 C 4.179688 -3.5 4.59375 -3.078125 5.125 -2.734375 C 5.664062 -2.398438 6.25 -2.234375 6.875 -2.234375 C 7.5 -2.234375 8.046875 -2.28125 8.515625 -2.375 C 8.992188 -2.476562 9.445312 -2.613281 9.875 -2.78125 L 10.875 -0.921875 C 10.332031 -0.535156 9.71875 -0.238281 9.03125 -0.03125 C 8.34375 0.164062 7.601562 0.265625 6.8125 0.265625 C 5.957031 0.265625 5.15625 0.113281 4.40625 -0.1875 C 3.664062 -0.488281 3.019531 -0.890625 2.46875 -1.390625 C 1.914062 -1.898438 1.476562 -2.503906 1.15625 -3.203125 C 0.832031 -3.910156 0.671875 -4.65625 0.671875 -5.4375 C 0.671875 -6.207031 0.816406 -6.9375 1.109375 -7.625 C 1.398438 -8.320312 1.804688 -8.925781 2.328125 -9.4375 C 2.847656 -9.957031 3.445312 -10.367188 4.125 -10.671875 C 4.8125 -10.984375 5.546875 -11.140625 6.328125 -11.140625 Z M 8.796875 -6.328125 C 8.628906 -6.960938 8.316406 -7.472656 7.859375 -7.859375 C 7.410156 -8.253906 6.898438 -8.453125 6.328125 -8.453125 C 5.742188 -8.453125 5.21875 -8.253906 4.75 -7.859375 C 4.28125 -7.472656 3.957031 -6.960938 3.78125 -6.328125 Z M 8.796875 -6.328125 "/></g></g></g></svg>