<svg xmlns="http://www.w3.org/2000/svg" xmlns:xlink="http://www.w3.org/1999/xlink" width="500" zoomAndPan="magnify" viewBox="0 0 375 374.999991" height="500" preserveAspectRatio="xMidYMid meet" version="1.0"><defs><g/><clipPath id="320f70ee8f"><path d="M 53 145.988281 L 150.148438 145.988281 L 150.148438 188 L 53 188 Z M 53 145.988281 " clip-rule="nonzero"/></clipPath><clipPath id="3189dc7bf1"><path d="M 43.648438 187 L 141 187 L 141 229.238281 L 43.648438 229.238281 Z M 43.648438 187 " clip-rule="nonzero"/></clipPath></defs><g clip-path="url(#320f70ee8f)"><path fill="#00adef" d="M 53.542969 187.609375 L 69.53125 187.609375 L 82.121094 171.597656 L 66.132812 171.597656 Z M 134.152344 145.984375 L 100.691406 187.609375 L 116.679688 187.609375 L 150.144531 145.984375 Z M 102.113281 156.445312 L 77.117188 187.609375 L 93.105469 187.609375 L 118.101562 156.445312 L 102.113281 156.445312 " fill-opacity="1" fill-rule="nonzero"/></g><g clip-path="url(#3189dc7bf1)"><path fill="#4f4c4c" d="M 140.253906 187.609375 L 124.265625 187.609375 L 111.675781 203.621094 L 127.664062 203.621094 Z M 59.644531 229.234375 L 93.105469 187.609375 L 77.117188 187.609375 L 43.652344 229.234375 Z M 91.683594 218.773438 L 116.679688 187.609375 L 100.691406 187.609375 L 75.695312 218.773438 L 91.683594 218.773438 " fill-opacity="1" fill-rule="nonzero"/></g><g fill="#00adef" fill-opacity="1"><g transform="translate(155.680835, 181.077072)"><g><path d="M 1.109375 -34.03125 L 25.734375 -34.03125 L 25.734375 -27.40625 L 17.046875 -27.40625 L 17.046875 0 L 9.796875 0 L 9.796875 -27.40625 L 1.109375 -27.40625 Z M 1.109375 -34.03125 "/></g></g></g><g fill="#00adef" fill-opacity="1"><g transform="translate(181.552789, 181.077072)"><g><path d="M 13.921875 -24.484375 C 15.710938 -24.484375 17.34375 -24.117188 18.8125 -23.390625 C 20.289062 -22.671875 21.554688 -21.726562 22.609375 -20.5625 C 23.660156 -19.394531 24.472656 -18.050781 25.046875 -16.53125 C 25.628906 -15.007812 25.921875 -13.453125 25.921875 -11.859375 C 25.921875 -10.898438 25.789062 -9.875 25.53125 -8.78125 L 8.546875 -8.78125 C 9.179688 -7.695312 10.09375 -6.773438 11.28125 -6.015625 C 12.46875 -5.265625 13.75 -4.890625 15.125 -4.890625 C 16.5 -4.890625 17.703125 -5 18.734375 -5.21875 C 19.773438 -5.445312 20.765625 -5.738281 21.703125 -6.09375 L 23.90625 -2.015625 C 22.71875 -1.179688 21.363281 -0.539062 19.84375 -0.09375 C 18.320312 0.351562 16.695312 0.578125 14.96875 0.578125 C 13.082031 0.578125 11.320312 0.25 9.6875 -0.40625 C 8.0625 -1.0625 6.640625 -1.945312 5.421875 -3.0625 C 4.203125 -4.1875 3.238281 -5.515625 2.53125 -7.046875 C 1.832031 -8.585938 1.484375 -10.222656 1.484375 -11.953125 C 1.484375 -13.648438 1.800781 -15.257812 2.4375 -16.78125 C 3.082031 -18.300781 3.972656 -19.628906 5.109375 -20.765625 C 6.242188 -21.898438 7.5625 -22.800781 9.0625 -23.46875 C 10.570312 -24.144531 12.191406 -24.484375 13.921875 -24.484375 Z M 19.34375 -13.921875 C 18.957031 -15.296875 18.269531 -16.414062 17.28125 -17.28125 C 16.289062 -18.144531 15.171875 -18.578125 13.921875 -18.578125 C 12.640625 -18.578125 11.476562 -18.144531 10.4375 -17.28125 C 9.394531 -16.414062 8.679688 -15.296875 8.296875 -13.921875 Z M 19.34375 -13.921875 "/></g></g></g><g fill="#00adef" fill-opacity="1"><g transform="translate(209.152744, 181.077072)"><g><path d="M 13.875 -18.578125 C 13.070312 -18.578125 12.316406 -18.390625 11.609375 -18.015625 C 10.910156 -17.648438 10.296875 -17.15625 9.765625 -16.53125 C 9.234375 -15.90625 8.816406 -15.175781 8.515625 -14.34375 C 8.210938 -13.519531 8.0625 -12.625 8.0625 -11.65625 C 8.0625 -10.695312 8.210938 -9.828125 8.515625 -9.046875 C 8.816406 -8.265625 9.234375 -7.59375 9.765625 -7.03125 C 10.296875 -6.46875 10.910156 -6.023438 11.609375 -5.703125 C 12.316406 -5.390625 13.070312 -5.234375 13.875 -5.234375 C 14.863281 -5.234375 15.828125 -5.460938 16.765625 -5.921875 C 17.710938 -6.390625 18.523438 -7.039062 19.203125 -7.875 L 23.28125 -3.84375 C 22.15625 -2.5 20.773438 -1.425781 19.140625 -0.625 C 17.515625 0.175781 15.757812 0.578125 13.875 0.578125 C 12.144531 0.578125 10.523438 0.25 9.015625 -0.40625 C 7.515625 -1.0625 6.203125 -1.957031 5.078125 -3.09375 C 3.960938 -4.226562 3.078125 -5.554688 2.421875 -7.078125 C 1.765625 -8.597656 1.4375 -10.222656 1.4375 -11.953125 C 1.4375 -13.679688 1.765625 -15.304688 2.421875 -16.828125 C 3.078125 -18.347656 3.960938 -19.675781 5.078125 -20.8125 C 6.203125 -21.945312 7.515625 -22.84375 9.015625 -23.5 C 10.523438 -24.15625 12.144531 -24.484375 13.875 -24.484375 C 15.820312 -24.484375 17.628906 -24.066406 19.296875 -23.234375 C 20.960938 -22.398438 22.367188 -21.265625 23.515625 -19.828125 L 18.90625 -16.265625 C 17.976562 -17.128906 17.140625 -17.726562 16.390625 -18.0625 C 15.640625 -18.40625 14.800781 -18.578125 13.875 -18.578125 Z M 13.875 -18.578125 "/></g></g></g><g fill="#00adef" fill-opacity="1"><g transform="translate(232.912703, 181.077072)"><g><path d="M 14.546875 -23.8125 C 15.441406 -23.8125 16.429688 -23.679688 17.515625 -23.421875 C 18.609375 -23.171875 19.632812 -22.691406 20.59375 -21.984375 C 21.550781 -21.273438 22.359375 -20.296875 23.015625 -19.046875 C 23.671875 -17.804688 24 -16.191406 24 -14.203125 L 24 0 L 17.328125 0 L 17.328125 -13.96875 C 17.328125 -14.707031 17.207031 -15.332031 16.96875 -15.84375 C 16.726562 -16.351562 16.40625 -16.757812 16 -17.0625 C 15.601562 -17.363281 15.148438 -17.585938 14.640625 -17.734375 C 14.128906 -17.878906 13.617188 -17.953125 13.109375 -17.953125 C 12.691406 -17.953125 12.234375 -17.878906 11.734375 -17.734375 C 11.234375 -17.585938 10.769531 -17.351562 10.34375 -17.03125 C 9.914062 -16.71875 9.554688 -16.304688 9.265625 -15.796875 C 8.972656 -15.285156 8.828125 -14.675781 8.828125 -13.96875 L 8.828125 0 L 2.203125 0 L 2.203125 -23.8125 L 7.875 -23.8125 L 8.828125 -21.984375 C 9.597656 -22.523438 10.460938 -22.960938 11.421875 -23.296875 C 12.378906 -23.640625 13.421875 -23.8125 14.546875 -23.8125 Z M 14.546875 -23.8125 "/></g></g></g><g fill="#00adef" fill-opacity="1"><g transform="translate(257.920662, 181.077072)"><g><path d="M 13.875 -24.484375 C 15.570312 -24.484375 17.171875 -24.15625 18.671875 -23.5 C 20.171875 -22.84375 21.476562 -21.945312 22.59375 -20.8125 C 23.71875 -19.675781 24.609375 -18.347656 25.265625 -16.828125 C 25.921875 -15.304688 26.25 -13.679688 26.25 -11.953125 C 26.25 -10.222656 25.921875 -8.597656 25.265625 -7.078125 C 24.609375 -5.554688 23.71875 -4.226562 22.59375 -3.09375 C 21.476562 -1.957031 20.171875 -1.0625 18.671875 -0.40625 C 17.171875 0.25 15.570312 0.578125 13.875 0.578125 C 12.144531 0.578125 10.523438 0.25 9.015625 -0.40625 C 7.515625 -1.0625 6.203125 -1.957031 5.078125 -3.09375 C 3.960938 -4.226562 3.078125 -5.554688 2.421875 -7.078125 C 1.765625 -8.597656 1.4375 -10.222656 1.4375 -11.953125 C 1.4375 -13.679688 1.765625 -15.304688 2.421875 -16.828125 C 3.078125 -18.347656 3.960938 -19.675781 5.078125 -20.8125 C 6.203125 -21.945312 7.515625 -22.84375 9.015625 -23.5 C 10.523438 -24.15625 12.144531 -24.484375 13.875 -24.484375 Z M 13.875 -5.234375 C 14.675781 -5.234375 15.421875 -5.390625 16.109375 -5.703125 C 16.796875 -6.023438 17.398438 -6.46875 17.921875 -7.03125 C 18.453125 -7.59375 18.867188 -8.265625 19.171875 -9.046875 C 19.472656 -9.828125 19.625 -10.695312 19.625 -11.65625 C 19.625 -12.625 19.472656 -13.519531 19.171875 -14.34375 C 18.867188 -15.175781 18.453125 -15.90625 17.921875 -16.53125 C 17.398438 -17.15625 16.796875 -17.648438 16.109375 -18.015625 C 15.421875 -18.390625 14.675781 -18.578125 13.875 -18.578125 C 13.070312 -18.578125 12.316406 -18.390625 11.609375 -18.015625 C 10.910156 -17.648438 10.296875 -17.15625 9.765625 -16.53125 C 9.234375 -15.90625 8.816406 -15.175781 8.515625 -14.34375 C 8.210938 -13.519531 8.0625 -12.625 8.0625 -11.65625 C 8.0625 -10.695312 8.210938 -9.828125 8.515625 -9.046875 C 8.816406 -8.265625 9.234375 -7.59375 9.765625 -7.03125 C 10.296875 -6.46875 10.910156 -6.023438 11.609375 -5.703125 C 12.316406 -5.390625 13.070312 -5.234375 13.875 -5.234375 Z M 13.875 -5.234375 "/></g></g></g><g fill="#4f4c4c" fill-opacity="1"><g transform="translate(150.430835, 222.422901)"><g><path d="M 16.03125 -34.03125 C 18.5 -34.03125 20.675781 -33.582031 22.5625 -32.6875 C 24.445312 -31.789062 26.019531 -30.570312 27.28125 -29.03125 C 28.550781 -27.5 29.515625 -25.691406 30.171875 -23.609375 C 30.828125 -21.535156 31.15625 -19.328125 31.15625 -16.984375 C 31.15625 -14.617188 30.8125 -12.40625 30.125 -10.34375 C 29.4375 -8.28125 28.484375 -6.476562 27.265625 -4.9375 C 26.046875 -3.40625 24.601562 -2.195312 22.9375 -1.3125 C 21.28125 -0.4375 19.472656 0 17.515625 0 L 2.296875 0 L 2.296875 -34.03125 Z M 16.078125 -6.578125 C 17.453125 -6.578125 18.628906 -6.851562 19.609375 -7.40625 C 20.585938 -7.96875 21.394531 -8.726562 22.03125 -9.6875 C 22.664062 -10.65625 23.132812 -11.757812 23.4375 -13 C 23.75 -14.25 23.90625 -15.5625 23.90625 -16.9375 C 23.90625 -18.320312 23.757812 -19.644531 23.46875 -20.90625 C 23.1875 -22.164062 22.722656 -23.273438 22.078125 -24.234375 C 21.441406 -25.203125 20.625 -25.972656 19.625 -26.546875 C 18.632812 -27.117188 17.453125 -27.40625 16.078125 -27.40625 L 9.59375 -27.40625 L 9.59375 -6.578125 Z M 16.078125 -6.578125 "/></g></g></g><g fill="#4f4c4c" fill-opacity="1"><g transform="translate(182.254782, 222.422901)"><g><path d="M 13.921875 -24.484375 C 15.710938 -24.484375 17.34375 -24.117188 18.8125 -23.390625 C 20.289062 -22.671875 21.554688 -21.726562 22.609375 -20.5625 C 23.660156 -19.394531 24.472656 -18.050781 25.046875 -16.53125 C 25.628906 -15.007812 25.921875 -13.453125 25.921875 -11.859375 C 25.921875 -10.898438 25.789062 -9.875 25.53125 -8.78125 L 8.546875 -8.78125 C 9.179688 -7.695312 10.09375 -6.773438 11.28125 -6.015625 C 12.46875 -5.265625 13.75 -4.890625 15.125 -4.890625 C 16.5 -4.890625 17.703125 -5 18.734375 -5.21875 C 19.773438 -5.445312 20.765625 -5.738281 21.703125 -6.09375 L 23.90625 -2.015625 C 22.71875 -1.179688 21.363281 -0.539062 19.84375 -0.09375 C 18.320312 0.351562 16.695312 0.578125 14.96875 0.578125 C 13.082031 0.578125 11.320312 0.25 9.6875 -0.40625 C 8.0625 -1.0625 6.640625 -1.945312 5.421875 -3.0625 C 4.203125 -4.1875 3.238281 -5.515625 2.53125 -7.046875 C 1.832031 -8.585938 1.484375 -10.222656 1.484375 -11.953125 C 1.484375 -13.648438 1.800781 -15.257812 2.4375 -16.78125 C 3.082031 -18.300781 3.972656 -19.628906 5.109375 -20.765625 C 6.242188 -21.898438 7.5625 -22.800781 9.0625 -23.46875 C 10.570312 -24.144531 12.191406 -24.484375 13.921875 -24.484375 Z M 19.34375 -13.921875 C 18.957031 -15.296875 18.269531 -16.414062 17.28125 -17.28125 C 16.289062 -18.144531 15.171875 -18.578125 13.921875 -18.578125 C 12.640625 -18.578125 11.476562 -18.144531 10.4375 -17.28125 C 9.394531 -16.414062 8.679688 -15.296875 8.296875 -13.921875 Z M 19.34375 -13.921875 "/></g></g></g><g fill="#4f4c4c" fill-opacity="1"><g transform="translate(209.854736, 222.422901)"><g><path d="M 17.28125 -12.484375 C 19.039062 -11.234375 19.921875 -9.457031 19.921875 -7.15625 C 19.921875 -6.09375 19.671875 -5.097656 19.171875 -4.171875 C 18.679688 -3.242188 18.003906 -2.425781 17.140625 -1.71875 C 16.273438 -1.019531 15.265625 -0.46875 14.109375 -0.0625 C 12.960938 0.332031 11.734375 0.53125 10.421875 0.53125 C 9.421875 0.53125 8.445312 0.398438 7.5 0.140625 C 6.5625 -0.109375 5.691406 -0.457031 4.890625 -0.90625 C 4.097656 -1.351562 3.40625 -1.890625 2.8125 -2.515625 C 2.21875 -3.140625 1.773438 -3.835938 1.484375 -4.609375 C 2.222656 -4.960938 3.039062 -5.351562 3.9375 -5.78125 C 4.832031 -6.21875 5.613281 -6.609375 6.28125 -6.953125 C 6.570312 -6.472656 7.019531 -6.035156 7.625 -5.640625 C 8.238281 -5.242188 9.070312 -5.046875 10.125 -5.046875 C 11.21875 -5.046875 12.019531 -5.300781 12.53125 -5.8125 C 13.039062 -6.320312 13.296875 -6.800781 13.296875 -7.25 C 13.296875 -7.570312 13.117188 -7.867188 12.765625 -8.140625 C 12.410156 -8.410156 12.007812 -8.625 11.5625 -8.78125 C 10.925781 -9.039062 10.398438 -9.175781 9.984375 -9.1875 C 9.566406 -9.207031 9.085938 -9.296875 8.546875 -9.453125 C 6.816406 -9.867188 5.492188 -10.421875 4.578125 -11.109375 C 3.671875 -11.796875 3.007812 -12.488281 2.59375 -13.1875 C 2.175781 -13.894531 1.941406 -14.566406 1.890625 -15.203125 C 1.847656 -15.847656 1.828125 -16.363281 1.828125 -16.75 C 1.828125 -17.769531 2.050781 -18.742188 2.5 -19.671875 C 2.945312 -20.609375 3.5625 -21.421875 4.34375 -22.109375 C 5.125 -22.796875 6.035156 -23.347656 7.078125 -23.765625 C 8.117188 -24.179688 9.234375 -24.390625 10.421875 -24.390625 C 11.410156 -24.390625 12.351562 -24.242188 13.25 -23.953125 C 14.144531 -23.660156 14.957031 -23.257812 15.6875 -22.75 C 16.425781 -22.238281 17.0625 -21.628906 17.59375 -20.921875 C 18.125 -20.222656 18.515625 -19.441406 18.765625 -18.578125 L 13.625 -16.84375 C 13.4375 -17.425781 13.046875 -17.890625 12.453125 -18.234375 C 11.859375 -18.585938 11.226562 -18.765625 10.5625 -18.765625 C 9.882812 -18.765625 9.335938 -18.539062 8.921875 -18.09375 C 8.503906 -17.644531 8.296875 -17.195312 8.296875 -16.75 C 8.296875 -16.207031 8.492188 -15.785156 8.890625 -15.484375 C 9.296875 -15.179688 9.738281 -14.960938 10.21875 -14.828125 C 10.570312 -14.765625 10.914062 -14.707031 11.25 -14.65625 C 11.59375 -14.613281 11.921875 -14.5625 12.234375 -14.5 C 13.359375 -14.238281 14.328125 -13.945312 15.140625 -13.625 C 15.960938 -13.3125 16.675781 -12.929688 17.28125 -12.484375 Z M 17.28125 -12.484375 "/></g></g></g><g fill="#4f4c4c" fill-opacity="1"><g transform="translate(230.158705, 222.422901)"><g><path d="M 15.9375 -24.484375 C 17.632812 -24.484375 19.203125 -24.15625 20.640625 -23.5 C 22.078125 -22.84375 23.316406 -21.945312 24.359375 -20.8125 C 25.398438 -19.675781 26.21875 -18.347656 26.8125 -16.828125 C 27.40625 -15.304688 27.703125 -13.679688 27.703125 -11.953125 C 27.703125 -10.222656 27.40625 -8.597656 26.8125 -7.078125 C 26.21875 -5.554688 25.398438 -4.226562 24.359375 -3.09375 C 23.316406 -1.957031 22.078125 -1.0625 20.640625 -0.40625 C 19.203125 0.25 17.632812 0.578125 15.9375 0.578125 C 14.5625 0.578125 13.21875 0.332031 11.90625 -0.15625 C 10.59375 -0.65625 9.566406 -1.289062 8.828125 -2.0625 L 8.828125 9.5 L 2.203125 9.5 L 2.203125 -23.8125 L 7.875 -23.8125 L 8.828125 -22.171875 C 9.753906 -23.003906 10.796875 -23.597656 11.953125 -23.953125 C 13.109375 -24.304688 14.4375 -24.484375 15.9375 -24.484375 Z M 15.078125 -5.328125 C 15.941406 -5.328125 16.75 -5.503906 17.5 -5.859375 C 18.25 -6.210938 18.898438 -6.679688 19.453125 -7.265625 C 20.015625 -7.859375 20.460938 -8.554688 20.796875 -9.359375 C 21.140625 -10.160156 21.3125 -11.023438 21.3125 -11.953125 C 21.3125 -12.847656 21.140625 -13.703125 20.796875 -14.515625 C 20.460938 -15.335938 20.015625 -16.039062 19.453125 -16.625 C 18.898438 -17.21875 18.25 -17.691406 17.5 -18.046875 C 16.75 -18.398438 15.941406 -18.578125 15.078125 -18.578125 C 14.210938 -18.578125 13.398438 -18.457031 12.640625 -18.21875 C 11.890625 -17.976562 11.234375 -17.59375 10.671875 -17.0625 C 10.117188 -16.53125 9.679688 -15.84375 9.359375 -15 C 9.035156 -14.15625 8.875 -13.140625 8.875 -11.953125 C 8.875 -10.828125 9.035156 -9.859375 9.359375 -9.046875 C 9.679688 -8.234375 10.117188 -7.546875 10.671875 -6.984375 C 11.234375 -6.421875 11.890625 -6.003906 12.640625 -5.734375 C 13.398438 -5.460938 14.210938 -5.328125 15.078125 -5.328125 Z M 15.078125 -5.328125 "/></g></g></g><g fill="#4f4c4c" fill-opacity="1"><g transform="translate(257.566651, 222.422901)"><g><path d="M 13.921875 -24.484375 C 15.710938 -24.484375 17.34375 -24.117188 18.8125 -23.390625 C 20.289062 -22.671875 21.554688 -21.726562 22.609375 -20.5625 C 23.660156 -19.394531 24.472656 -18.050781 25.046875 -16.53125 C 25.628906 -15.007812 25.921875 -13.453125 25.921875 -11.859375 C 25.921875 -10.898438 25.789062 -9.875 25.53125 -8.78125 L 8.546875 -8.78125 C 9.179688 -7.695312 10.09375 -6.773438 11.28125 -6.015625 C 12.46875 -5.265625 13.75 -4.890625 15.125 -4.890625 C 16.5 -4.890625 17.703125 -5 18.734375 -5.21875 C 19.773438 -5.445312 20.765625 -5.738281 21.703125 -6.09375 L 23.90625 -2.015625 C 22.71875 -1.179688 21.363281 -0.539062 19.84375 -0.09375 C 18.320312 0.351562 16.695312 0.578125 14.96875 0.578125 C 13.082031 0.578125 11.320312 0.25 9.6875 -0.40625 C 8.0625 -1.0625 6.640625 -1.945312 5.421875 -3.0625 C 4.203125 -4.1875 3.238281 -5.515625 2.53125 -7.046875 C 1.832031 -8.585938 1.484375 -10.222656 1.484375 -11.953125 C 1.484375 -13.648438 1.800781 -15.257812 2.4375 -16.78125 C 3.082031 -18.300781 3.972656 -19.628906 5.109375 -20.765625 C 6.242188 -21.898438 7.5625 -22.800781 9.0625 -23.46875 C 10.570312 -24.144531 12.191406 -24.484375 13.921875 -24.484375 Z M 19.34375 -13.921875 C 18.957031 -15.296875 18.269531 -16.414062 17.28125 -17.28125 C 16.289062 -18.144531 15.171875 -18.578125 13.921875 -18.578125 C 12.640625 -18.578125 11.476562 -18.144531 10.4375 -17.28125 C 9.394531 -16.414062 8.679688 -15.296875 8.296875 -13.921875 Z M 19.34375 -13.921875 "/></g></g></g><g fill="#4f4c4c" fill-opacity="1"><g transform="translate(285.166605, 222.422901)"><g><path d="M 20.828125 -23.8125 L 26.5 -23.8125 L 26.5 -8.0625 C 26.5 -6.238281 26.472656 -4.613281 26.421875 -3.1875 C 26.378906 -1.769531 26.257812 -0.492188 26.0625 0.640625 C 25.875 1.785156 25.5625 2.804688 25.125 3.703125 C 24.695312 4.597656 24.097656 5.425781 23.328125 6.1875 C 21.921875 7.5625 20.34375 8.503906 18.59375 9.015625 C 16.851562 9.535156 15.023438 9.796875 13.109375 9.796875 C 11.472656 9.796875 9.9375 9.601562 8.5 9.21875 C 7.0625 8.832031 5.765625 8.300781 4.609375 7.625 L 4.609375 1.4375 C 4.898438 1.882812 5.304688 2.285156 5.828125 2.640625 C 6.359375 2.992188 6.96875 3.296875 7.65625 3.546875 C 8.34375 3.804688 9.078125 4.007812 9.859375 4.15625 C 10.648438 4.300781 11.441406 4.375 12.234375 4.375 C 13.296875 4.375 14.289062 4.234375 15.21875 3.953125 C 16.144531 3.679688 16.953125 3.242188 17.640625 2.640625 C 18.328125 2.035156 18.867188 1.273438 19.265625 0.359375 C 19.671875 -0.554688 19.875 -1.664062 19.875 -2.96875 L 19.875 -3.453125 C 18.945312 -2.617188 17.875 -1.953125 16.65625 -1.453125 C 15.4375 -0.960938 14.109375 -0.71875 12.671875 -0.71875 C 11.066406 -0.71875 9.582031 -1.03125 8.21875 -1.65625 C 6.863281 -2.28125 5.691406 -3.128906 4.703125 -4.203125 C 3.710938 -5.273438 2.9375 -6.535156 2.375 -7.984375 C 1.8125 -9.441406 1.53125 -10.988281 1.53125 -12.625 C 1.53125 -14.257812 1.8125 -15.796875 2.375 -17.234375 C 2.9375 -18.671875 3.710938 -19.925781 4.703125 -21 C 5.691406 -22.070312 6.863281 -22.921875 8.21875 -23.546875 C 9.582031 -24.171875 11.066406 -24.484375 12.671875 -24.484375 C 14.171875 -24.484375 15.53125 -24.28125 16.75 -23.875 C 17.96875 -23.476562 19.007812 -22.847656 19.875 -21.984375 Z M 14.015625 -6.625 C 15.035156 -6.625 15.914062 -6.804688 16.65625 -7.171875 C 17.394531 -7.546875 18.003906 -8.019531 18.484375 -8.59375 C 18.960938 -9.164062 19.3125 -9.800781 19.53125 -10.5 C 19.757812 -11.207031 19.875 -11.898438 19.875 -12.578125 C 19.875 -13.316406 19.753906 -14.046875 19.515625 -14.765625 C 19.273438 -15.484375 18.914062 -16.117188 18.4375 -16.671875 C 17.957031 -17.234375 17.347656 -17.691406 16.609375 -18.046875 C 15.867188 -18.398438 15.003906 -18.578125 14.015625 -18.578125 C 13.179688 -18.578125 12.410156 -18.414062 11.703125 -18.09375 C 11.003906 -17.769531 10.390625 -17.335938 9.859375 -16.796875 C 9.335938 -16.253906 8.921875 -15.625 8.609375 -14.90625 C 8.304688 -14.1875 8.15625 -13.410156 8.15625 -12.578125 C 8.15625 -11.742188 8.304688 -10.96875 8.609375 -10.25 C 8.921875 -9.53125 9.335938 -8.894531 9.859375 -8.34375 C 10.390625 -7.800781 11.003906 -7.378906 11.703125 -7.078125 C 12.410156 -6.773438 13.179688 -6.625 14.015625 -6.625 Z M 14.015625 -6.625 "/></g></g></g><g fill="#4f4c4c" fill-opacity="1"><g transform="translate(312.670556, 222.422901)"><g><path d="M 17.234375 -23.8125 L 23.859375 -23.8125 L 23.859375 0 L 18.1875 0 L 17.234375 -1.828125 C 16.460938 -1.285156 15.585938 -0.84375 14.609375 -0.5 C 13.640625 -0.164062 12.59375 0 11.46875 0 C 10.601562 0 9.617188 -0.125 8.515625 -0.375 C 7.410156 -0.632812 6.378906 -1.113281 5.421875 -1.8125 C 4.460938 -2.519531 3.65625 -3.5 3 -4.75 C 2.34375 -6 2.015625 -7.613281 2.015625 -9.59375 L 2.015625 -23.8125 L 8.6875 -23.8125 L 8.6875 -9.84375 C 8.6875 -9.101562 8.804688 -8.476562 9.046875 -7.96875 C 9.285156 -7.457031 9.601562 -7.046875 10 -6.734375 C 10.40625 -6.429688 10.863281 -6.207031 11.375 -6.0625 C 11.882812 -5.925781 12.410156 -5.859375 12.953125 -5.859375 C 13.367188 -5.859375 13.828125 -5.925781 14.328125 -6.0625 C 14.828125 -6.207031 15.289062 -6.441406 15.71875 -6.765625 C 16.15625 -7.085938 16.515625 -7.503906 16.796875 -8.015625 C 17.085938 -8.523438 17.234375 -9.132812 17.234375 -9.84375 Z M 17.234375 -23.8125 "/></g></g></g><g fill="#4f4c4c" fill-opacity="1"><g transform="translate(337.774508, 222.422901)"><g><path d="M 13.921875 -24.484375 C 15.710938 -24.484375 17.34375 -24.117188 18.8125 -23.390625 C 20.289062 -22.671875 21.554688 -21.726562 22.609375 -20.5625 C 23.660156 -19.394531 24.472656 -18.050781 25.046875 -16.53125 C 25.628906 -15.007812 25.921875 -13.453125 25.921875 -11.859375 C 25.921875 -10.898438 25.789062 -9.875 25.53125 -8.78125 L 8.546875 -8.78125 C 9.179688 -7.695312 10.09375 -6.773438 11.28125 -6.015625 C 12.46875 -5.265625 13.75 -4.890625 15.125 -4.890625 C 16.5 -4.890625 17.703125 -5 18.734375 -5.21875 C 19.773438 -5.445312 20.765625 -5.738281 21.703125 -6.09375 L 23.90625 -2.015625 C 22.71875 -1.179688 21.363281 -0.539062 19.84375 -0.09375 C 18.320312 0.351562 16.695312 0.578125 14.96875 0.578125 C 13.082031 0.578125 11.320312 0.25 9.6875 -0.40625 C 8.0625 -1.0625 6.640625 -1.945312 5.421875 -3.0625 C 4.203125 -4.1875 3.238281 -5.515625 2.53125 -7.046875 C 1.832031 -8.585938 1.484375 -10.222656 1.484375 -11.953125 C 1.484375 -13.648438 1.800781 -15.257812 2.4375 -16.78125 C 3.082031 -18.300781 3.972656 -19.628906 5.109375 -20.765625 C 6.242188 -21.898438 7.5625 -22.800781 9.0625 -23.46875 C 10.570312 -24.144531 12.191406 -24.484375 13.921875 -24.484375 Z M 19.34375 -13.921875 C 18.957031 -15.296875 18.269531 -16.414062 17.28125 -17.28125 C 16.289062 -18.144531 15.171875 -18.578125 13.921875 -18.578125 C 12.640625 -18.578125 11.476562 -18.144531 10.4375 -17.28125 C 9.394531 -16.414062 8.679688 -15.296875 8.296875 -13.921875 Z M 19.34375 -13.921875 "/></g></g></g></svg>